<svg width="17" height="17" viewBox="0 0 17 17" fill="none" xmlns="http://www.w3.org/2000/svg">
<path d="M3.69368 10.0719L3.11354 12.2377L0.993131 12.2826C0.35944 11.1072 0 9.76243 0 8.3334C0 6.95153 0.336068 5.6484 0.931771 4.50098H0.932227L2.81999 4.84707L3.64694 6.7235C3.47386 7.22809 3.37952 7.76976 3.37952 8.3334C3.37959 8.94512 3.4904 9.53122 3.69368 10.0719Z" fill="#FBBB00"/>
<path d="M16.5202 6.77637C16.6159 7.28047 16.6658 7.80107 16.6658 8.33314C16.6658 8.92975 16.603 9.51172 16.4835 10.0731C16.0779 11.9833 15.0179 13.6514 13.5495 14.8318L13.549 14.8313L11.1713 14.71L10.8348 12.6092C11.8091 12.0378 12.5706 11.1436 12.9717 10.0731H8.51562V6.77637H13.0367H16.5202Z" fill="#518EF8"/>
<path d="M13.549 14.8319L13.5494 14.8323C12.1213 15.9802 10.3072 16.667 8.33239 16.667C5.15885 16.667 2.39971 14.8932 0.992188 12.2829L3.69274 10.0723C4.39648 11.9505 6.2083 13.2875 8.33239 13.2875C9.24538 13.2875 10.1007 13.0407 10.8347 12.6098L13.549 14.8319Z" fill="#28B446"/>
<path d="M13.6523 1.91849L10.9527 4.12865C10.1931 3.65384 9.29518 3.37956 8.3332 3.37956C6.16104 3.37956 4.31533 4.7779 3.64684 6.72344L0.932096 4.50091H0.931641C2.31855 1.82692 5.1125 0 8.3332 0C10.3552 0 12.2091 0.720247 13.6523 1.91849Z" fill="#F14336"/>
</svg>
