<svg id="Layer_1" data-name="Layer 1" xmlns="http://www.w3.org/2000/svg" viewBox="0 0 514.24 90.74">
<defs>
    <style>.cls-1,.cls-4{fill:#fff;}.cls-1,.cls-3{stroke:#ffc107;stroke-miterlimit:10;stroke-width:4px;}.cls-2,.cls-3{fill:#ffc107;}.cls-4{font-size:73.44px;font-family:Gugeshashvili_5_Mthavruli-Bold, Gugeshashvili_5_Mthavruli;font-weight:700;letter-spacing:-0.01em;}</style>
</defs>
<rect class="cls-1" x="2" y="2" width="216.85" height="86.74"/>
<path class="cls-2" d="M47.52,104.23H59.05c7.58,0,12.53,4.92,12.53,13.32s-4.43,14.26-13.4,14.26H50.8v22.42H47.52Zm3.28,24.55h7.07c6.64,0,10.28-3.65,10.28-11.23,0-5.86-3.07-10.29-9.55-10.29H50.8Z" transform="translate(-26.35 -82.68)"/>
<path class="cls-2" d="M84.31,104.23H87.6v22h18.86v-22h3.29v50h-3.29v-25H87.6v25H84.31Z" transform="translate(-26.35 -82.68)"/>
<path class="cls-2" d="M151.41,128.75c0,16.28-3.49,26.15-13.87,26.15-10,0-13.64-9.44-13.64-25.93s4.3-25.41,13.79-25.41C147.7,103.56,151.41,112.07,151.41,128.75Zm-24.07.07c0,15.78,3.56,23,10.35,23,6.95,0,10.28-7.25,10.28-22.9,0-16.41-3.62-22.36-10.35-22.36S127.34,113.64,127.34,128.82Z" transform="translate(-26.35 -82.68)"/>
<path class="cls-2" d="M165.54,154.23v-50h4.6c16,39,17.94,43.38,18.6,45.37h.07q-.44-10.75-.44-22.88V104.23h3.34v50h-4.38c-16.69-40.72-18.38-44.86-18.9-46.64h-.07c.37,6.32.44,15,.44,24v22.59Z" transform="translate(-26.35 -82.68)"/>
<path class="cls-2" d="M228.2,129.11H211.12v22.08H230l-.53,3h-21.6v-50h21.24v3h-18v18.8H228.2Z" transform="translate(-26.35 -82.68)"/>
<rect class="cls-3" x="229.38" y="2" width="300" height="86.74"/>
<text class="cls-4" transform="translate(239.03 70.64)">NUMBER</text></svg>